<svg width="25" height="24" viewBox="0 0 25 24" fill="none" xmlns="http://www.w3.org/2000/svg">
<path d="M3.78034 2.21955C3.48745 1.92666 3.01257 1.92665 2.71968 2.21954C2.42678 2.51243 2.42677 2.98731 2.71966 3.2802L6.93783 7.49846H4.75C3.50736 7.49846 2.5 8.50582 2.5 9.74846V14.2464C2.5 15.489 3.50736 16.4964 4.75 16.4964H8.42956C8.61329 16.4964 8.79063 16.5638 8.92793 16.6859L13.4194 20.6796C14.2255 21.3964 15.5 20.8241 15.5 19.7455V16.0608L21.2194 21.7804C21.5123 22.0732 21.9872 22.0733 22.2801 21.7804C22.573 21.4875 22.573 21.0126 22.2801 20.7197L3.78034 2.21955ZM17.641 13.9591L18.779 15.0972C19.2408 14.1627 19.5 13.1106 19.5 11.9999C19.5 10.7967 19.1958 9.66232 18.6596 8.67171C18.4624 8.30745 18.0072 8.17201 17.643 8.3692C17.2787 8.56639 17.1432 9.02154 17.3404 9.3858C17.7609 10.1626 18 11.0522 18 11.9999C18 12.6909 17.8729 13.3511 17.641 13.9591ZM19.8881 16.2063L20.9815 17.2997C21.9437 15.763 22.5 13.9456 22.5 11.9999C22.5 9.77377 21.7717 7.71557 20.5407 6.05349C20.2941 5.72064 19.8244 5.65066 19.4916 5.8972C19.1587 6.14374 19.0888 6.61343 19.3353 6.94628C20.3815 8.35884 21 10.106 21 11.9999C21 13.531 20.5958 14.9662 19.8881 16.2063ZM10.02 6.33801L15.5 11.8181V4.24987C15.5 3.17125 14.2255 2.59902 13.4195 3.3157L10.02 6.33801Z" fill="white"/>
<path d="M3.78034 2.2198C3.48745 1.9269 3.01257 1.9269 2.71968 2.21979C2.42678 2.51268 2.42677 2.98755 2.71966 3.28045L6.93784 7.4987L15.5 16.061L21.2194 21.7806C21.5123 22.0735 21.9872 22.0735 22.2801 21.7806C22.573 21.4877 22.573 21.0128 22.2801 20.7199L3.78034 2.2198Z" fill="#C50F1F"/>
</svg>
