<svg width="25" height="24" viewBox="0 0 25 24" fill="none" xmlns="http://www.w3.org/2000/svg">
<path d="M3.78034 2.21968C3.48745 1.92678 3.01257 1.92677 2.71968 2.21966C2.42678 2.51255 2.42677 2.98743 2.71966 3.28032L4.28662 4.84731C3.22676 5.38269 2.5 6.48147 2.5 7.75V16.25C2.5 18.0449 3.95507 19.5 5.75 19.5H13.25C14.7943 19.5 16.0871 18.4229 16.4179 16.9789L21.2194 21.7805C21.5123 22.0734 21.9872 22.0734 22.2801 21.7805C22.573 21.4876 22.573 21.0127 22.2801 20.7198L3.78034 2.21968ZM17.5 13.8182L22.0042 18.3226C22.3008 18.1491 22.5 17.8272 22.5 17.4588V6.54096C22.5 6.30368 22.4156 6.07414 22.262 5.89334C21.9043 5.47252 21.2732 5.42132 20.8524 5.77899L17.5 8.62794V13.8182ZM8.18194 4.5L16.5 12.8182V7.75C16.5 5.95508 15.0449 4.5 13.25 4.5H8.18194Z" fill="white"/>
<path d="M3.78034 2.21968C3.48745 1.92678 3.01257 1.92677 2.71968 2.21966C2.42678 2.51255 2.42677 2.98743 2.71966 3.28032L6.93784 7.49858L15.5 16.0609L21.2194 21.7805C21.5123 22.0734 21.9872 22.0734 22.2801 21.7805C22.573 21.4876 22.573 21.0127 22.2801 20.7198L3.78034 2.21968Z" fill="#C50F1F"/>
</svg>
